<svg xmlns="http://www.w3.org/2000/svg" width="192" height="192" viewBox="0 0 192 192" fill="none">
  <rect width="192" height="192" rx="38" fill="url(#ati-lg)"/>
  <line x1="96" y1="96" x2="96" y2="36"    stroke="rgba(255,255,255,0.35)" stroke-width="5"/>
  <line x1="96" y1="96" x2="138.43" y2="53.57" stroke="rgba(255,255,255,0.35)" stroke-width="5"/>
  <line x1="96" y1="96" x2="156" y2="96"   stroke="rgba(255,255,255,0.35)" stroke-width="5"/>
  <line x1="96" y1="96" x2="138.43" y2="138.43" stroke="rgba(255,255,255,0.35)" stroke-width="5"/>
  <line x1="96" y1="96" x2="96" y2="156"   stroke="rgba(255,255,255,0.35)" stroke-width="5"/>
  <line x1="96" y1="96" x2="53.57" y2="138.43" stroke="rgba(255,255,255,0.35)" stroke-width="5"/>
  <line x1="96" y1="96" x2="36" y2="96"    stroke="rgba(255,255,255,0.35)" stroke-width="5"/>
  <line x1="96" y1="96" x2="53.57" y2="53.57" stroke="rgba(255,255,255,0.35)" stroke-width="5"/>
  <circle cx="96"    cy="36"    r="13" fill="rgba(255,255,255,0.75)"/>
  <circle cx="138.43" cy="53.57" r="13" fill="rgba(255,255,255,0.75)"/>
  <circle cx="156"   cy="96"    r="13" fill="rgba(255,255,255,0.75)"/>
  <circle cx="138.43" cy="138.43" r="13" fill="rgba(255,255,255,0.75)"/>
  <circle cx="96"    cy="156"   r="13" fill="rgba(255,255,255,0.75)"/>
  <circle cx="53.57" cy="138.43" r="13" fill="rgba(255,255,255,0.75)"/>
  <circle cx="36"    cy="96"    r="13" fill="rgba(255,255,255,0.75)"/>
  <circle cx="53.57" cy="53.57" r="13" fill="rgba(255,255,255,0.75)"/>
  <circle cx="96" cy="96" r="30" fill="white"/>
  <text x="96" y="96" text-anchor="middle" dominant-baseline="central"
    font-size="36" font-weight="800" fill="#4F46E5" font-family="Inter,Arial,sans-serif">P</text>
  <defs>
    <linearGradient id="ati-lg" x1="0" y1="0" x2="192" y2="192" gradientUnits="userSpaceOnUse">
      <stop stop-color="#4F46E5"/>
      <stop offset="1" stop-color="#06B6D4"/>
    </linearGradient>
  </defs>
</svg>
