<svg xmlns="http://www.w3.org/2000/svg" viewBox="0 0 32 32" fill="none">
  <rect width="32" height="32" rx="8" fill="url(#fav-lg)"/>
  <line x1="16" y1="16" x2="16" y2="6"     stroke="rgba(255,255,255,0.35)" stroke-width="0.9"/>
  <line x1="16" y1="16" x2="23.07" y2="8.93" stroke="rgba(255,255,255,0.35)" stroke-width="0.9"/>
  <line x1="16" y1="16" x2="26" y2="16"    stroke="rgba(255,255,255,0.35)" stroke-width="0.9"/>
  <line x1="16" y1="16" x2="23.07" y2="23.07" stroke="rgba(255,255,255,0.35)" stroke-width="0.9"/>
  <line x1="16" y1="16" x2="16" y2="26"    stroke="rgba(255,255,255,0.35)" stroke-width="0.9"/>
  <line x1="16" y1="16" x2="8.93" y2="23.07" stroke="rgba(255,255,255,0.35)" stroke-width="0.9"/>
  <line x1="16" y1="16" x2="6" y2="16"     stroke="rgba(255,255,255,0.35)" stroke-width="0.9"/>
  <line x1="16" y1="16" x2="8.93" y2="8.93" stroke="rgba(255,255,255,0.35)" stroke-width="0.9"/>
  <circle cx="16"    cy="6"     r="2.2" fill="rgba(255,255,255,0.75)"/>
  <circle cx="23.07" cy="8.93"  r="2.2" fill="rgba(255,255,255,0.75)"/>
  <circle cx="26"    cy="16"    r="2.2" fill="rgba(255,255,255,0.75)"/>
  <circle cx="23.07" cy="23.07" r="2.2" fill="rgba(255,255,255,0.75)"/>
  <circle cx="16"    cy="26"    r="2.2" fill="rgba(255,255,255,0.75)"/>
  <circle cx="8.93"  cy="23.07" r="2.2" fill="rgba(255,255,255,0.75)"/>
  <circle cx="6"     cy="16"    r="2.2" fill="rgba(255,255,255,0.75)"/>
  <circle cx="8.93"  cy="8.93"  r="2.2" fill="rgba(255,255,255,0.75)"/>
  <circle cx="16" cy="16" r="5" fill="white"/>
  <text x="16" y="16" text-anchor="middle" dominant-baseline="central"
    font-size="6" font-weight="800" fill="#4F46E5" font-family="Inter,system-ui,sans-serif">P</text>
  <defs>
    <linearGradient id="fav-lg" x1="0" y1="0" x2="32" y2="32" gradientUnits="userSpaceOnUse">
      <stop stop-color="#4F46E5"/>
      <stop offset="1" stop-color="#06B6D4"/>
    </linearGradient>
  </defs>
</svg>
